<?xml version="1.0" encoding="UTF-8"?>
<svg id="Layer_2" data-name="Layer 2" xmlns="http://www.w3.org/2000/svg" viewBox="0 0 646.66 909.15">
  <defs>
    <style>
      .cls-1 {
        stroke-linejoin: round;
      }

      .cls-1, .cls-2 {
        fill: none;
        stroke: #fff;
        stroke-linecap: round;
        stroke-width: 15.26px;
      }

      .cls-2 {
        stroke-miterlimit: 10;
      }

      .cls-3 {
        fill: #fff;
      }
    </style>
  </defs>
  <path class="cls-1" d="m415.09,288.98v-86.06h16.45c13.55,0,24.54-10.99,24.54-24.54v-4.27c0-13.55-10.99-24.54-24.54-24.54h-216.41c-13.55,0-24.54,10.99-24.54,24.54v4.27c0,13.55,10.99,24.54,24.54,24.54h16.45v86.06C103.49,328.19,10.35,447.35,10.35,588.28c0,172.85,140.13,312.98,312.98,312.98s312.98-140.13,312.98-312.98c0-140.92-93.14-260.08-221.22-299.3Z"/>
  <path class="cls-3" d="m456.95,8.52s-111.73-15.55-147.74,108.62c0,0,121.98,11.44,147.74-108.62Z"/>
  <ellipse class="cls-3" cx="203.47" cy="543.05" rx="38.77" ry="39.25"/>
  <circle class="cls-3" cx="276.16" cy="518.89" r="23.99"/>
  <circle class="cls-3" cx="261.25" cy="584.28" r="13.01"/>
  <circle class="cls-3" cx="179.22" cy="470.91" r="15.09"/>
  <path class="cls-3" d="m584.39,592.02c-3.13-12.93-8.34-25.35-15.36-36.67-13.89-22.39-34.76-40.21-59.13-50.39-15.53-6.49-32.32-9.81-49.16-9.81-22.86,0-45.53,6.18-65.15,17.87-9.54,5.68-18.32,12.61-26.06,20.55-3.84,3.94-18.01,24.72-22.1,30.3-3.22,4.4-6.69,8.63-10.53,12.61-7.66,7.94-16.3,14.95-25.67,20.81-19.26,12.05-41.5,19.07-64.21,20.3-2.48.13-4.97.2-7.46.2-74.55,0-134.97-60.2-134.97-134.48,0-17.24,3.26-33.71,9.19-48.86-34.54,44.54-55.07,100.38-55.07,161.01,0,145.61,118.47,263.65,264.61,263.65,116.95,0,216.2-75.6,251.16-180.44,3.86-12.28,6.97-24.79,9.28-37.45,1.7-9.32,3.41-18.7,3.57-28.2.12-7.04-1.29-14.17-2.95-21Zm-201.31,55.94c-11.5,0-20.82-10.94-20.82-24.43s9.32-24.43,20.82-24.43,20.82,10.94,20.82,24.43-9.32,24.43-20.82,24.43Zm93.26,25.01c-8.21,0-14.86-5.6-14.86-12.5s6.65-12.5,14.86-12.5,14.86,5.6,14.86,12.5-6.65,12.5-14.86,12.5Zm-12.18-49.44c-21.41,0-38.77-17.57-38.77-39.25s17.36-39.25,38.77-39.25,38.77,17.57,38.77,39.25-17.36,39.25-38.77,39.25Z"/>
  <path class="cls-2" d="m194.32,377.29c37.27-56.07,101.02-93.02,173.39-93.02,17.81,0,35.1,2.24,51.61,6.45"/>
</svg>